<svg width="33" height="32" viewBox="0 0 33 32" fill="none" xmlns="http://www.w3.org/2000/svg">
    <path d="M31.4674 15.66C30.2912 12.6176 28.2494 9.98662 25.5942 8.09209C22.939 6.19756 19.7869 5.12257 16.5274 5C13.2679 5.12257 10.1158 6.19756 7.46061 8.09209C4.80542 9.98662 2.76357 12.6176 1.58741 15.66C1.50797 15.8797 1.50797 16.1203 1.58741 16.34C2.76357 19.3824 4.80542 22.0134 7.46061 23.9079C10.1158 25.8024 13.2679 26.8774 16.5274 27C19.7869 26.8774 22.939 25.8024 25.5942 23.9079C28.2494 22.0134 30.2912 19.3824 31.4674 16.34C31.5468 16.1203 31.5468 15.8797 31.4674 15.66ZM16.5274 25C11.2274 25 5.62741 21.07 3.59741 16C5.62741 10.93 11.2274 7 16.5274 7C21.8274 7 27.4274 10.93 29.4574 16C27.4274 21.07 21.8274 25 16.5274 25Z"
          fill="currentColor"/>
    <path d="M16.5274 10C15.3407 10 14.1807 10.3519 13.194 11.0112C12.2073 11.6705 11.4383 12.6075 10.9841 13.7039C10.53 14.8003 10.4112 16.0067 10.6427 17.1705C10.8742 18.3344 11.4457 19.4035 12.2848 20.2426C13.1239 21.0818 14.193 21.6532 15.3569 21.8847C16.5208 22.1162 17.7272 21.9974 18.8235 21.5433C19.9199 21.0892 20.8569 20.3201 21.5162 19.3334C22.1755 18.3467 22.5274 17.1867 22.5274 16C22.5274 14.4087 21.8953 12.8826 20.77 11.7574C19.6448 10.6321 18.1187 10 16.5274 10ZM16.5274 20C15.7363 20 14.9629 19.7654 14.3051 19.3259C13.6473 18.8864 13.1346 18.2616 12.8319 17.5307C12.5291 16.7998 12.4499 15.9956 12.6043 15.2196C12.7586 14.4437 13.1396 13.731 13.699 13.1716C14.2584 12.6122 14.9711 12.2312 15.747 12.0769C16.523 11.9225 17.3272 12.0017 18.0581 12.3045C18.789 12.6072 19.4138 13.1199 19.8533 13.7777C20.2928 14.4355 20.5274 15.2089 20.5274 16C20.5274 17.0609 20.106 18.0783 19.3558 18.8284C18.6057 19.5786 17.5883 20 16.5274 20Z"
          fill="currentColor"/>
</svg>
